<?xml version="1.0" encoding="utf-8"?>
<!-- Generator: Adobe Illustrator 21.0.2, SVG Export Plug-In . SVG Version: 6.00 Build 0)  -->
<svg version="1.1" id="Layer_1" xmlns="http://www.w3.org/2000/svg" xmlns:xlink="http://www.w3.org/1999/xlink" x="0px" y="0px"
	 viewBox="0 0 637.5 189.3" style="enable-background:new 0 0 637.5 189.3;" xml:space="preserve">
<style type="text/css">
	.st0{fill:#216393;}
	.st1{fill:#044C7F;}
</style>
<g>
	<g>
		<path class="st0" d="M329.7,117.6l0-83.4h18.1l0,83.6c0,13.6,14.7,20.4,27.8,20.4c12.9,0,27.6-6.9,27.6-20.6l0-83.4h18.1l0,83.6
			c0,25.2-24.4,38.3-45.7,38.3C353.8,156,329.7,142.9,329.7,117.6z"/>
		<path class="st0" d="M252,71.7V34.2h-18.3V156H252v-45.8l46.5,45.8h25l-49.8-50.6c-12-11.6-12.8-16.1-5.2-24L316,34.2h-25.7
			L252,71.7z"/>
		<path class="st0" d="M532.5,51.8c11-11.2,26.6-18.3,43.4-18.3c17.1,0,32.4,7.1,43.6,18.3c10.9,11.2,17.9,26.6,17.9,43.6
			s-7.1,32.4-17.9,43.6c-11.2,11.4-26.6,18.3-43.6,18.3c-16.9,0-32.4-6.9-43.4-18.3c-10.9-11.2-17.9-26.6-17.9-43.6
			S521.7,63,532.5,51.8z M607.2,64.2c-8.1-8.1-19.3-13.1-31.2-13.1c-11.9,0-22.9,5-30.9,13.1c-7.9,7.9-12.9,19-12.9,31.2
			s5,23.3,12.9,31.2c7.9,8.1,19,13.1,30.9,13.1c11.9,0,23.1-5,31.2-13.1c7.8-7.9,12.8-18.8,12.8-31.2S614.9,72.1,607.2,64.2z"/>
		<path class="st0" d="M475.8,34.2h-33.2c-4.9,0-8.9,4-8.9,8.9v31.6c0,4.9,4,8.9,8.9,8.9h32.8c7.1,0,13.5-3,17.8-8.3
			c3.6-4.5,5.6-10.4,5.6-16.6C498.8,44.5,489.1,34.2,475.8,34.2z M481.6,59.4c0,5.1-4.1,9.3-9.1,9.3h-21.1V49.1h21.1
			c5,0,9.1,4.2,9.1,9.3V59.4z"/>
		<path class="st0" d="M482.7,96.4h-39.6c-5.2,0-9.4,4.2-9.4,9.4v40.9c0,5.2,4.2,9.4,9.4,9.4h39.6c18.2,0,28.1-15.4,28.1-29.9
			C510.8,111.7,500.9,96.4,482.7,96.4z M493.5,126.9c0,6.4-5.2,11.6-11.6,11.6h-30.4v-24.3h30.4c6.4,0,11.6,5.2,11.6,11.6V126.9z"/>
	</g>
	<g>
		<g>
			<path class="st0" d="M94.3,124.3c5.3,0,9.6-4.3,9.6-9.6H84.7C84.7,120,89,124.3,94.3,124.3z"/>
			<path class="st0" d="M127.3,98.5c6.6,0,12.6,1.6,17.4,4.2c1.3-2.6,2.1-5.6,2.1-8.8c0-10.8-8.7-19.5-19.5-19.5
				c-10.8,0-19.5,8.7-19.5,19.5c0,3.2,0.8,6.1,2.1,8.8C114.7,100.1,120.7,98.5,127.3,98.5z"/>
			<path class="st0" d="M60.4,98.5c6.6,0,12.6,1.6,17.4,4.2c1.3-2.6,2.1-5.6,2.1-8.8c0-10.8-8.7-19.5-19.5-19.5
				C49.7,74.4,41,83.2,41,93.9c0,3.2,0.8,6.1,2.1,8.8C47.8,100.1,53.9,98.5,60.4,98.5z"/>
		</g>
		<path class="st1" d="M155.2,189.3H34c-18.8,0-34-15.3-34-34V34C0,15.3,15.3,0,34,0h39.6v10.1c0,6.5,5.3,11.7,11.7,11.7h16.8
			c6.5,0,11.7-5.3,11.7-11.7V0h41.3c18.8,0,34,15.3,34,34v121.2C189.3,174,174,189.3,155.2,189.3z M34,12.3C22,12.3,12.3,22,12.3,34
			v121.2c0,12,9.8,21.8,21.8,21.8h121.2c12,0,21.8-9.8,21.8-21.8V34c0-12-9.8-21.8-21.8-21.8h-29.2c-1.1,12.2-11.4,21.9-23.9,21.9
			H85.4c-12.5,0-22.8-9.6-23.9-21.9H34z"/>
	</g>
</g>
</svg>
